HIERARCHY
ROOT Hips
{
     OFFSET 1.88212 96.90440 -13.34250
     CHANNELS 6 Xposition Yposition Zposition Zrotation Xrotation Yrotation
     JOINT Spine
     {
          OFFSET 0.00000 11.89050 0.00000
          CHANNELS 3 Zrotation Xrotation Yrotation
          JOINT Spine1
          {
               OFFSET -0.00000 25.65740 0.12766
               CHANNELS 3 Zrotation Xrotation Yrotation
               JOINT HEad
               {
                    OFFSET 0.00000 8.73416 0.01134
                    CHANNELS 3 Zrotation Xrotation Yrotation
                    End Site
                    {
                         OFFSET -0.29000 12.77420 2.51395
                    }
               }
               JOINT LeftShoulder1
               {
                    OFFSET 8.99000 -0.36225 -0.22000
                    CHANNELS 3 Zrotation Xrotation Yrotation
                    JOINT LeftArm
                    {
                         OFFSET 10.28270 -0.00338 0.32212
                         CHANNELS 3 Zrotation Xrotation Yrotation
                         JOINT LeftForeArm
                         {
                              OFFSET 32.76690 0.09914 -1.42434
                              CHANNELS 3 Zrotation Xrotation Yrotation
                              JOINT LeftHand
                              {
                                   OFFSET 27.56430 0.08536 1.02216
                                   CHANNELS 3 Zrotation Xrotation Yrotation
                                   End Site
                                   {
                                        OFFSET 16.74430 -0.60000 1.50291
                                   }
                              }
                         }
                    }
               }
               JOINT RightShoulder
               {
                    OFFSET -8.99000 -0.36225 -0.22000
                    CHANNELS 3 Zrotation Xrotation Yrotation
                    JOINT RightArm
                    {
                         OFFSET -10.28270 -0.00338 0.32212
                         CHANNELS 3 Zrotation Xrotation Yrotation
                         JOINT RightForeArm
                         {
                              OFFSET -32.89710 0.09914 -1.42434
                              CHANNELS 3 Zrotation Xrotation Yrotation
                              JOINT RightHand
                              {
                                   OFFSET -27.49210 0.08536 1.02216
                                   CHANNELS 3 Zrotation Xrotation Yrotation
                                   End Site
                                   {
                                        OFFSET -16.63120 -0.60000 1.50291
                                   }
                              }
                         }
                    }
               }
          }
     }
     JOINT LeftUpLeg
     {
          OFFSET 8.94580 -8.66707 0.10165
          CHANNELS 3 Zrotation Xrotation Yrotation
          JOINT LeftLeg
          {
               OFFSET 0.00000 -44.42270 1.37270
               CHANNELS 3 Zrotation Xrotation Yrotation
               JOINT LeftFoot
               {
                    OFFSET -0.25355 -42.09240 -1.46059
                    CHANNELS 3 Zrotation Xrotation Yrotation
                    JOINT LeftToes
                    {
                         OFFSET -0.04000 -4.41509 8.49910
                         CHANNELS 3 Zrotation Xrotation Yrotation
                         End Site
                         {
                              OFFSET 0.08000 -0.04745 9.77979
                         }
                    }
               }
          }
     }
     JOINT RightUpLeg
     {
          OFFSET -8.94580 -8.66707 0.10165
          CHANNELS 3 Zrotation Xrotation Yrotation
          JOINT RightLeg
          {
               OFFSET 0.00000 -44.42270 1.37270
               CHANNELS 3 Zrotation Xrotation Yrotation
               JOINT RightFoot
               {
                    OFFSET 0.25355 -42.09240 -1.46059
                    CHANNELS 3 Zrotation Xrotation Yrotation
                    JOINT RightToes
                    {
                         OFFSET 0.04000 -4.41509 8.49910
                         CHANNELS 3 Zrotation Xrotation Yrotation
                         End Site
                         {
                              OFFSET -0.08000 -0.13745 9.77979
                         }
                    }
               }
          }
     }
}
MOTION
Frames: 19
Frame Time: 0.01667
46.77313 89.49172 -80.78347 2.86640 -5.30474 -16.47954 3.31201 15.73784 10.29710 0.01174 -0.00666 -0.02139 -23.82694 23.00815 18.39960 11.11933 -5.36976 -3.97001 15.22689 -78.64265 34.83366 -39.68414 46.89757 -104.30936 7.24542 9.15752 1.57350 32.93080 -3.49982 3.46633 39.26020 -15.76120 60.49598 25.51756 39.29961 105.21348 -6.62164 15.77731 -2.19244 19.33227 -28.86931 6.11961 -5.00859 23.57037 8.18862 25.24540 0.01031 0.00600 -44.84480 -3.52219 -6.61139 -27.33057 9.07361 -10.18645 -7.40118 27.93529 36.54526 10.95096 -0.09156 0.01372 -19.25678 -49.92456 -30.72405 
45.33572 88.94961 -82.99106 2.96562 -4.69377 -15.83976 3.04427 15.41537 10.89439 0.00978 -0.00402 -0.02143 -23.53897 21.09424 18.11712 10.97687 -4.62566 -4.95485 18.80207 -79.18790 39.44114 -39.94416 47.25258 -104.25537 6.35108 8.25096 3.49017 32.28131 -3.21087 2.28688 41.10057 -14.80389 62.21770 25.09072 39.23714 104.82956 -6.60671 15.41081 -2.38453 20.11404 -30.01797 6.89000 -3.26758 23.58521 1.82953 23.92801 -0.03657 0.03293 -43.60305 -4.20925 -2.85638 -26.04411 12.54342 -5.04890 -2.54473 21.04623 26.48854 10.53733 -0.09547 -0.01598 -10.94675 -40.83347 -29.39306 
43.88496 88.46911 -85.04826 2.90337 -4.26632 -15.39602 2.99422 15.21338 11.31255 0.00783 -0.00324 -0.02122 -23.47424 19.36159 18.27217 10.69773 -3.75960 -5.72945 22.70399 -79.81796 44.45498 -40.47412 47.81805 -104.09702 7.01102 8.24229 0.82411 31.76463 -2.71176 1.23850 42.60419 -13.87739 63.77369 24.61173 39.15520 104.48566 -6.66333 15.03672 -2.51895 20.46619 -30.95037 7.46017 -0.52933 23.59191 -5.97306 21.58316 -0.10675 0.05677 -29.34062 5.17051 -5.22281 -25.06524 15.60956 -0.13284 1.42773 16.08760 16.36213 7.52747 -0.17755 0.05364 -10.39051 -42.59612 -23.25469 
42.47298 88.02512 -86.91231 2.70318 -4.01958 -15.09444 3.13462 15.11917 11.52663 0.00654 -0.00173 -0.02072 -23.60285 17.88502 18.83904 10.39344 -2.82046 -6.39270 27.01571 -80.51711 49.96617 -41.17786 48.53301 -103.73003 6.44381 7.80393 1.70864 31.20708 -2.07661 0.29733 44.00403 -12.95164 65.14794 24.13705 39.03611 104.13235 -6.78837 14.63960 -2.62133 20.51152 -31.56353 7.84988 1.69830 22.83668 -12.45276 19.48676 -0.08249 0.03307 -35.42450 0.46273 3.20321 -24.37429 18.19167 4.53177 5.14367 12.18070 7.07451 7.27694 -0.12856 0.00037 -8.58261 -40.40393 -18.73271 
41.15427 87.63608 -88.58342 2.37977 -3.92874 -14.89678 3.46867 15.08600 11.53917 0.00592 -0.00198 -0.01865 -23.89183 16.74196 19.76612 10.14840 -2.00097 -6.79505 30.39038 -81.22569 54.55527 -42.07497 49.29239 -103.15440 6.69332 7.99365 -0.22525 30.78479 -1.46863 -0.38790 45.12893 -12.01861 66.13263 23.67770 38.87389 103.76631 -6.96148 14.26056 -2.51393 20.39802 -31.78999 8.12664 3.59085 21.74722 -17.70933 17.40138 -0.06394 0.02546 -34.29810 2.57181 6.52716 -23.43051 19.35501 8.62846 8.24242 9.89783 -0.71308 4.77783 -0.18553 0.03175 -7.37930 -41.43322 -13.58846 
39.93929 87.41613 -90.14120 1.96258 -3.96457 -14.79282 3.93307 15.09661 11.38841 0.00277 -0.00081 -0.01646 -24.23149 15.87663 20.96351 9.74962 -1.14147 -6.99678 32.86637 -82.08936 57.96452 -42.98776 49.99170 -102.39126 6.21491 7.89286 0.26000 30.30257 -0.74606 -0.87789 46.21724 -11.14004 66.88357 23.22249 38.67991 103.37419 -6.91251 13.79755 -2.61701 20.33997 -31.75958 8.40463 4.85122 22.02521 -20.18510 16.10158 -0.02744 -0.01642 -35.02053 0.96232 9.93417 -22.19865 19.36503 11.84406 10.58466 8.98619 -6.25820 4.59319 -0.13821 0.02429 -8.26351 -41.63525 -10.75937 
38.83823 87.34093 -91.53329 1.47466 -4.09550 -14.79119 4.47305 15.13057 11.13262 0.00024 0.00002 -0.01370 -24.59562 15.30116 22.36130 9.22274 -0.31904 -6.96333 33.56696 -83.07024 59.31380 -43.84245 50.56561 -101.53365 6.27542 8.20415 -0.90058 29.80177 0.02091 -1.10762 47.16926 -10.36982 67.33916 22.77445 38.46251 102.93401 -6.75261 13.49439 -2.62353 20.48186 -31.59699 8.80623 5.49124 22.97131 -20.20113 15.40148 0.00263 -0.02392 -33.81515 0.44343 10.09689 -20.67110 18.40222 14.09540 12.33138 11.31757 -9.77670 1.85409 -0.05412 -0.03501 -7.08020 -44.37015 -9.09047 
37.85508 87.43266 -92.75297 0.94019 -4.28436 -14.89868 5.04112 15.16802 10.81555 -0.00163 0.00098 -0.01171 -24.98580 15.01866 23.91327 8.61413 0.46618 -6.79836 32.80581 -84.07248 58.95648 -44.51192 50.95281 -100.70574 5.98471 8.55472 -0.59459 29.21708 0.79367 -1.19097 48.01396 -9.64967 67.66037 22.33814 38.20819 102.43835 -6.39549 13.26087 -2.61299 20.87513 -31.37335 9.40910 5.57426 24.23851 -18.17953 15.07810 0.01040 -0.02002 -34.13867 4.76696 24.61281 -18.90660 16.84682 15.34702 12.77850 12.14739 -11.49888 4.26672 -0.14390 0.01552 -9.82085 -43.15298 -8.43848 
36.99261 87.68276 -93.79929 0.38173 -4.49706 -15.10706 5.60471 15.18202 10.46985 -0.00277 0.00167 -0.00950 -25.77160 16.41393 26.18581 7.94750 1.18611 -6.47986 30.37306 -85.04227 56.73006 -45.03446 51.18361 -99.95267 6.02093 8.96702 -1.23081 28.48252 1.55905 -1.09851 48.77604 -9.01039 67.85558 21.91429 37.92444 101.91764 -6.04579 12.98247 -2.50095 21.51340 -31.12868 10.23200 5.09939 25.75352 -14.59046 15.08165 0.00510 -0.01142 -31.44376 4.06953 13.55805 -17.03084 15.00924 15.61625 12.15407 12.59683 -11.52159 4.09362 -0.12148 0.03118 -9.30122 -40.75014 -8.19214 
36.25134 88.04350 -94.65636 -0.17969 -4.71934 -15.38687 6.14359 15.16129 10.09780 -0.00316 0.00190 -0.00768 -26.64949 17.82922 28.48188 7.27240 1.79986 -6.04917 26.29547 -85.88190 52.73375 -45.39417 51.28937 -99.35524 5.83875 9.44240 -1.08572 27.61565 2.23709 -0.95563 49.44798 -8.35621 68.00774 21.54681 37.63378 101.38638 -5.66628 12.78027 -2.30513 22.37054 -30.85999 11.25156 3.96568 27.45509 -9.84822 15.49028 -0.01005 0.00220 -30.20421 4.69620 11.70385 -15.54788 13.56888 15.89159 11.87919 15.94706 -10.59620 4.74939 -0.04055 0.00266 -9.80740 -41.62556 -8.91076 
35.61934 88.47226 -95.33083 -0.72412 -4.89371 -15.70078 6.65302 15.05571 9.70602 -0.00330 0.00244 -0.00546 -27.61526 19.23180 30.76085 6.59097 2.35649 -5.47179 -26.35639 -90.00000 0.00000 -45.69455 51.33213 -98.85398 5.83602 9.76952 -1.38754 26.61506 2.91643 -0.62869 50.02924 -7.91048 68.12377 21.27129 37.33886 100.83775 -5.32087 12.56913 -2.16983 23.28809 -30.47207 12.34964 3.26757 27.82801 -6.18255 15.06604 0.03110 -0.00246 -28.83903 5.22571 5.10591 -14.39163 12.48680 16.09772 11.10538 16.84252 -9.43640 11.40283 -0.21404 -0.00478 -15.58822 -40.03460 -8.29784 
35.08405 88.93770 -95.86021 -1.23931 -5.00675 -16.01571 7.11439 14.86499 9.29776 -0.00409 0.00345 -0.00340 -28.64544 20.56636 32.98589 5.86934 2.88438 -4.80082 -26.17680 -90.00000 0.00000 -45.93553 51.33001 -98.42521 5.69512 10.23780 -1.21401 25.51863 3.59489 -0.18849 50.51068 -7.64695 68.28224 21.09512 37.04211 100.27457 -4.99731 12.39228 -1.95770 24.08752 -29.86259 13.39455 2.85557 27.33222 -3.48984 14.12517 0.04350 -0.00245 -28.12812 6.51989 2.04854 -13.51088 11.66739 16.18837 10.47201 18.26737 -8.42300 9.47770 -0.01568 -0.01811 0.66807 -28.99900 8.64955 
34.61802 89.39724 -96.27502 -1.71712 -5.04929 -16.30716 7.51147 14.57844 8.88198 -0.00487 0.00349 -0.00151 -29.71313 21.82474 35.12368 5.10160 3.30150 -4.04787 -25.85766 -90.00000 0.00000 -46.14764 51.33493 -98.06075 5.68824 10.38213 -1.34959 24.50408 4.19207 0.40311 50.72530 -7.58905 68.39069 21.01094 36.73494 99.70108 -4.74146 12.27529 -1.82699 24.66552 -28.99951 14.29301 2.57844 26.26116 -1.61804 12.84447 0.04302 0.00110 -27.04000 8.14956 -1.45541 -12.84102 10.98930 16.11974 9.99294 19.83556 -7.46610 12.26320 -0.03873 0.01375 -7.38895 -35.07053 1.69470 
34.19726 89.87081 -96.61699 -2.14442 -5.01036 -16.57356 7.82928 14.20763 8.47997 -0.00480 0.00463 0.00002 -30.78735 22.95254 37.13747 4.40812 3.70341 -3.28304 -25.54144 -90.00000 0.00000 -46.37162 51.35252 -97.69286 5.62302 10.61367 -1.08674 23.23551 4.76534 1.00513 51.08670 -7.62962 68.61189 21.02945 36.42459 99.09767 -4.58928 11.99230 -1.62125 24.99590 -27.91421 15.02840 2.35735 24.81312 -0.40896 11.32425 0.03689 0.00428 -24.66406 10.07774 -3.34723 -12.34957 9.91999 14.76869 9.34133 22.04099 -5.38844 13.02134 -0.02844 0.00529 2.42275 -20.64509 21.10616 
33.81938 90.31335 -96.88367 -2.51851 -4.89885 -16.81016 8.05713 13.77140 8.09376 -0.00503 0.00527 0.00053 -31.85444 23.92515 39.01719 3.75678 4.06047 -2.59251 -25.18862 -90.00000 0.00000 -46.57107 51.38462 -97.33176 5.56293 10.65714 -1.13298 22.17308 5.28439 1.63576 51.18901 -7.81431 68.91447 21.13093 36.11573 98.48207 -4.50488 11.98595 -1.39534 25.09216 -26.66573 15.62062 2.21088 23.11660 0.32965 9.58605 0.03050 0.00556 -23.20636 10.51498 -4.68928 -12.03904 8.92823 13.37414 8.77777 24.11028 -3.31745 14.97040 -0.02885 0.01784 -2.64076 -27.81064 13.50707 
33.47196 90.74065 -97.07443 -2.83292 -4.72968 -17.02170 8.18430 13.29438 7.72984 -0.00497 0.00596 0.00091 -32.87471 24.71506 40.74482 3.17240 4.38892 -1.97474 -24.84924 -90.00000 0.00000 -46.78693 51.44870 -96.92597 5.52452 10.63985 -0.91950 21.25870 5.75789 2.24536 51.17244 -8.08060 69.33833 21.29325 35.80121 97.85258 -4.58530 11.74278 -1.13908 24.99457 -25.31849 16.09384 2.13469 21.26370 0.70173 7.65770 0.02400 0.00689 -20.52976 11.05224 -5.27658 -11.89452 7.96433 11.94970 8.35715 26.03186 -1.21309 16.25298 -0.02581 0.01499 4.34219 -7.61879 22.41302 
33.14697 91.15428 -97.20030 -3.08700 -4.52537 -17.21130 8.20817 12.79737 7.39042 -0.00473 0.00590 0.00107 -33.81400 25.31711 42.30798 2.66522 4.66283 -1.40435 -24.53119 -90.00000 0.00000 -47.04332 51.53623 -96.45428 5.46446 10.58834 -0.90380 20.53956 6.17584 2.86300 51.03379 -8.42485 69.83168 21.47480 35.48349 97.23914 -4.66506 11.70601 -0.88307 24.73996 -23.93260 16.48231 2.16126 19.32545 0.74066 5.54422 0.01726 0.00829 -17.83178 11.45798 -5.75842 -11.91735 7.00082 10.51187 8.04073 27.84135 0.95418 17.62767 -0.02653 0.01632 0.56765 -16.06965 17.80128 
32.84516 91.54843 -97.25983 -3.28491 -4.31088 -17.37164 8.14078 12.29780 7.06577 -0.00395 0.00561 0.00109 -34.66572 25.73594 43.70326 2.27969 4.89235 -0.87331 -24.30742 -90.00000 0.00000 -47.28558 51.62794 -95.97536 5.47365 10.42627 -0.85054 19.80340 6.52125 3.39096 51.05865 -8.70416 70.42204 21.66070 35.19463 96.64790 -4.86889 11.38164 -0.64028 24.35653 -22.56817 16.81191 2.31471 17.37495 0.46279 3.26320 0.01022 0.00944 -14.79199 11.98689 -5.50117 -12.08382 6.03980 9.06107 7.84063 29.56623 3.16043 18.53387 -0.02291 0.01232 1.74768 -11.63839 18.56203 
32.57081 91.90358 -97.26762 -3.43531 -4.10682 -17.50322 7.99896 11.80217 6.75498 -0.00310 0.00470 0.00123 -35.43287 26.01648 44.93102 1.99074 5.03536 -0.35719 -24.17114 -90.00000 0.00000 -47.54787 51.75203 -95.46174 5.36382 10.18475 -0.83005 19.29555 6.77957 3.89634 51.04484 -8.94140 70.98124 21.83148 34.95177 96.08155 -5.10760 11.22691 -0.41942 23.87722 -21.28014 17.09939 2.60427 15.48346 -0.07505 0.83715 0.00368 0.00986 -12.56131 12.09914 -5.37774 -12.38919 5.07722 7.62986 7.69992 31.24422 5.38936 19.11401 -0.02183 0.00913 0.87074 -14.16574 15.45510 
